<svg width="32" height="32" viewBox="0 0 32 32" fill="none" xmlns="http://www.w3.org/2000/svg">
<path fill-rule="evenodd" clip-rule="evenodd" d="M25.495 8.51733L22.1493 5.17157C21.3991 4.42143 20.3817 4 19.3208 4H9.33325C7.12411 4 5.33325 5.79086 5.33325 8V24C5.33325 26.2091 7.12411 28 9.33325 28H22.6666C24.8757 28 26.6666 26.2091 26.6666 24V11.3457C26.6666 10.2849 26.2452 9.26748 25.495 8.51733V8.51733Z" stroke="#303444" stroke-width="2" stroke-linecap="round" stroke-linejoin="round"/>
<path d="M16 18.6667V14C16 12.8954 16.8954 12 18 12V12C19.1046 12 20 12.8954 20 14V18.6667C20 20.8758 18.2091 22.6667 16 22.6667V22.6667C13.7909 22.6667 12 20.8758 12 18.6667V14.6667" stroke="#303444" stroke-width="2" stroke-linecap="round" stroke-linejoin="round"/>
</svg>
