<svg width="83" height="25" viewBox="0 0 83 25" fill="none" xmlns="http://www.w3.org/2000/svg">
<path d="M0.500007 18.4961C0.223907 18.4709 0 18.326 0 18.1734C0 15.0577 0 11.9421 0 8.82716C0 8.67382 0.223907 8.5289 0.500007 8.5037C0.776106 8.47849 1 8.58491 1 8.74104C1 11.9141 1 15.0864 1 18.2588C1 18.4149 0.776106 18.522 0.500007 18.4961Z" fill="white"/>
<path d="M2.49932 22.4907C2.22435 22.4489 2 22.286 2 22.1266C2 16.3753 2 10.624 2 4.87333C2 4.71323 2.22435 4.55034 2.49932 4.50927C2.77565 4.46819 3 4.56705 3 4.72994C3 10.5766 3 16.4233 3 22.27C3 22.4329 2.77565 22.5317 2.49932 22.4907Z" fill="white"/>
<path d="M4.50069 16.4992C4.22374 16.4859 4 16.3235 4 16.1361C4 14.3787 4 12.6213 4 10.8638C4 10.6756 4.22374 10.5133 4.50069 10.5007C4.77627 10.4882 5 10.6325 5 10.8238C5 12.6079 5 14.392 5 16.1753C5 16.3667 4.77627 16.5118 4.50069 16.4992Z" fill="white"/>
<path d="M6.49999 16.4993C6.22342 16.4877 6 16.3324 6 16.1525C6 14.3839 6 12.6153 6 10.8474C6 10.6675 6.22342 10.5122 6.49999 10.5006C6.77656 10.4891 7 10.6278 7 10.8106C7 12.6037 7 14.3962 7 16.1886C7 16.3714 6.77656 16.5109 6.49999 16.4993Z" fill="white"/>
<path d="M8.49932 16.4989C8.22388 16.4849 8 16.3404 8 16.1768C8 13.7254 8 11.2739 8 8.82253C8 8.65893 8.22388 8.51499 8.49932 8.50104C8.77611 8.48709 9 8.61074 9 8.77688C9 11.2587 9 13.7406 9 16.2231C9 16.3892 8.77611 16.5128 8.49932 16.4989Z" fill="white"/>
<path d="M10.5 18.4987C10.2236 18.483 10 18.3287 10 18.154C10 15.0516 10 11.9491 10 8.84599C10 8.672 10.2236 8.51763 10.5 8.50128C10.7751 8.48558 11 8.6164 11 8.79367C11 11.9314 11 15.0692 11 18.207C11 18.3836 10.7751 18.5144 10.5 18.4987Z" fill="white"/>
<path d="M12.5 16.4996C12.2243 16.4914 12 16.3441 12 16.171C12 14.3905 12 12.61 12 10.8295C12 10.6565 12.2243 10.5092 12.5 10.5004C12.777 10.4916 13 10.6269 13 10.8018C13 12.6006 13 14.3993 13 16.1981C13 16.3737 12.777 16.5084 12.5 16.4996Z" fill="white"/>
<path d="M14.5 20.4984C14.2237 20.4807 14 20.3097 14 20.1168C14 15.7061 14 11.2947 14 6.88326C14 6.69108 14.2237 6.52002 14.5 6.50162C14.7763 6.48322 15 6.62702 15 6.82125C15 11.2742 15 15.7265 15 20.1788C15 20.3737 14.7763 20.5168 14.5 20.4984Z" fill="white"/>
<path d="M16.5007 20.4988C16.2248 20.4822 16 20.3125 16 20.1202C16 15.7068 16 11.2934 16 6.87992C16 6.68696 16.2248 6.51796 16.5007 6.50133C16.7766 6.4847 17 6.62975 17 6.82404C17 11.2747 17 15.7254 17 20.1754C17 20.3704 16.7766 20.5148 16.5007 20.4988Z" fill="white"/>
<path d="M18.5 16.4997C18.2231 16.4936 18 16.3416 18 16.1609C18 14.3869 18 12.613 18 10.839C18 10.6583 18.2231 10.5069 18.5 10.5002C18.7755 10.4941 19 10.6363 19 10.8188C19 12.6062 19 14.3937 19 16.1811C19 16.3636 18.7755 16.5065 18.5 16.4997Z" fill="white"/>
<path d="M20.4993 16.4998C20.2242 16.4943 20 16.3214 20 16.1143C20 14.3718 20 12.6287 20 10.8856C20 10.6785 20.2242 10.5063 20.4993 10.5001C20.7758 10.4946 21 10.6593 21 10.8678C21 12.6226 21 14.3773 21 16.1321C21 16.3413 20.7758 16.506 20.4993 16.4998Z" fill="white"/>
<path d="M22.5 16.4998C22.2239 16.4926 22 16.3067 22 16.0847C22 13.6951 22 11.3049 22 8.91459C22 8.69256 22.2239 8.50669 22.5 8.50018C22.7762 8.49295 23 8.66942 23 8.89289C23 11.2976 23 13.7016 23 16.1064C23 16.3306 22.7762 16.5063 22.5 16.4998Z" fill="white"/>
<path d="M24.5 16.4998C24.2246 16.4944 24 16.2935 24 16.0525C24 13.6844 24 11.3163 24 8.9482C24 8.70714 24.2246 8.50626 24.5 8.50008C24.7754 8.49467 25 8.68628 25 8.92889C25 11.3101 25 13.6906 25 16.071C25 16.3136 24.7754 16.506 24.5 16.4998Z" fill="white" fill-opacity="0.6"/>
<path d="M26.5 16.4999C26.2233 16.496 26 16.3243 26 16.1173C26 14.3722 26 12.6271 26 10.8826C26 10.6749 26.2233 10.504 26.5 10.5C26.7754 10.4961 27 10.6618 27 10.8702C27 12.6231 27 14.3761 27 16.1291C27 16.3381 26.7754 16.5038 26.5 16.4999Z" fill="white" fill-opacity="0.6"/>
<path d="M28.4993 16.4999C28.2243 16.4963 28 16.3077 28 16.0782C28 14.3591 28 12.6408 28 10.9224C28 10.6929 28.2243 10.5036 28.4993 10.5C28.7757 10.4971 29 10.6814 29 10.9124C29 12.6372 29 14.3627 29 16.0883C29 16.3192 28.7757 16.5035 28.4993 16.4999Z" fill="white" fill-opacity="0.6"/>
<path d="M30.5 24.4996C30.224 24.4898 30 24.2986 30 24.0733C30 17.0249 30 9.97576 30 2.92665C30 2.70205 30.224 2.51082 30.5 2.50039C30.776 2.49065 31 2.66589 31 2.89189C31 9.96394 31 17.036 31 24.1088C31 24.3348 30.776 24.51 30.5 24.4996Z" fill="white" fill-opacity="0.6"/>
<path d="M32.5 20.4999C32.224 20.4937 32 20.306 32 20.081C32 15.027 32 9.97302 32 4.91902C32 4.69406 32.224 4.50636 32.5 4.50015C32.776 4.49463 33 4.67267 33 4.89901C33 9.96611 33 15.0339 33 20.1017C33 20.3274 32.776 20.5061 32.5 20.4999Z" fill="white" fill-opacity="0.6"/>
<path d="M34.5 18.5C34.224 18.497 34 18.2992 34 18.0589C34 15.0196 34 11.9804 34 8.94186C34 8.7008 34.224 8.50296 34.5 8.50003C34.776 8.4971 35 8.69053 35 8.93233C35 11.9774 35 15.0226 35 18.0684C35 18.3095 34.776 18.5029 34.5 18.5Z" fill="white" fill-opacity="0.6"/>
<path d="M36.4993 16.5C36.2237 16.4985 36 16.3005 36 16.0568C36 14.352 36 12.6472 36 10.9424C36 10.6995 36.2237 10.5007 36.4993 10.5C36.7763 10.4985 37 10.695 37 10.9387C37 12.6465 37 14.3535 37 16.0612C37 16.3042 36.775 16.5014 36.4993 16.5Z" fill="white" fill-opacity="0.6"/>
<path d="M38.4993 16.5C38.2237 16.4987 38 16.324 38 16.1091C38 13.7032 38 11.2967 38 8.89017C38 8.67598 38.2237 8.50062 38.4993 8.49998C38.7763 8.49868 39 8.6721 39 8.88694C39 11.2954 39 13.7039 39 16.1124C39 16.3272 38.7763 16.5006 38.4993 16.5Z" fill="white" fill-opacity="0.6"/>
<path d="M40.4993 16.5C40.2237 16.5 40 16.3318 40 16.1251C40 13.7086 40 11.292 40 8.87544C40 8.66872 40.2237 8.50059 40.4993 8.49997C40.7763 8.49997 41 8.66747 41 8.87419C41 11.2914 41 13.7086 41 16.1257C41 16.3331 40.775 16.5006 40.4993 16.5Z" fill="white" fill-opacity="0.6"/>
<path d="M42.5007 20.5C42.225 20.5007 42.0013 20.3252 42 20.1087C42 15.7031 42 11.2976 42 6.892C42.0013 6.67547 42.225 6.50003 42.5007 6.50003C42.7763 6.50068 43 6.67742 43 6.89395C43 11.2982 43 15.7025 43 20.1068C43 20.3233 42.7763 20.4994 42.5007 20.5Z" fill="white" fill-opacity="0.6"/>
<path d="M44.5007 24.5C44.2237 24.5026 44 24.3301 44 24.1148C44 16.3716 44 8.62841 44 0.884577C44 0.669291 44.2237 0.496803 44.5007 0.500046C44.7763 0.50264 45 0.67967 45 0.894957C45 8.63166 45 16.3684 45 24.1051C45 24.3197 44.7763 24.4967 44.5007 24.5Z" fill="white" fill-opacity="0.6"/>
<path d="M46.5 16.5C46.224 16.5015 46 16.2975 46 16.0445C46 13.6817 46 11.3182 46 8.95465C46 8.70172 46.224 8.49845 46.5 8.49998C46.776 8.50151 47 8.70783 47 8.96C47 11.3197 47 13.6795 47 16.0392C47 16.2921 46.776 16.4984 46.5 16.5Z" fill="white" fill-opacity="0.6"/>
<path d="M48.5 16.5C48.224 16.5022 48 16.308 48 16.0654C48 13.6889 48 11.3117 48 8.93454C48 8.69263 48.224 8.49778 48.5 8.49999C48.7773 8.50219 49 8.70072 49 8.94189C49 11.3139 49 13.686 49 16.058C49 16.3 48.7773 16.4977 48.5 16.5Z" fill="white" fill-opacity="0.6"/>
<path d="M50.5 18.4999C50.224 18.5037 50 18.3391 50 18.1328C50 15.0443 50 11.9557 50 8.86784C50 8.66092 50.224 8.49628 50.5 8.50006C50.776 8.50385 51 8.67417 51 8.87982C51 11.9601 51 15.0399 51 18.1202C51 18.3258 50.776 18.4962 50.5 18.4999Z" fill="white" fill-opacity="0.6"/>
<path d="M52.5 18.4999C52.224 18.5051 52 18.3386 52 18.1272C52 14.3753 52 10.6241 52 6.8728C52 6.66144 52.224 6.4943 52.5 6.50015C52.776 6.50535 53 6.68095 53 6.89101C53 10.6306 53 14.3695 53 18.1084C53 18.3191 52.776 18.494 52.5 18.4999Z" fill="white" fill-opacity="0.6"/>
<path d="M54.5007 16.4999C54.2243 16.5042 54 16.3192 54 16.0864C54 13.6952 54 11.304 54 8.91352C54 8.68076 54.2243 8.49571 54.5007 8.50004C54.7757 8.50438 55 8.69594 55 8.92725C55 11.3091 55 13.6909 55 16.072C55 16.304 54.7757 16.4956 54.5007 16.4999Z" fill="white" fill-opacity="0.6"/>
<path d="M56.5007 20.4996C56.2236 20.51 56 20.3386 56 20.1162C56 15.0392 56 9.96149 56 4.88378C56 4.66213 56.2236 4.49067 56.5007 4.50043C56.7764 4.51088 57 4.69838 57 4.91933C57 9.97335 57 15.0274 57 20.0814C57 20.3016 56.7764 20.4891 56.5007 20.4996Z" fill="white" fill-opacity="0.6"/>
<path d="M58.4993 20.4994C58.2235 20.5114 58 20.3405 58 20.1187C58 15.0393 58 9.96001 58 4.8814C58 4.65887 58.2235 4.48862 58.4993 4.50063C58.7751 4.51193 59 4.70055 59 4.92166C59 9.97344 59 15.0259 59 20.0784C59 20.2988 58.7751 20.4874 58.4993 20.4994Z" fill="white" fill-opacity="0.6"/>
<path d="M60.5 16.4998C60.2238 16.5068 60 16.3154 60 16.0722C60 13.691 60 11.3098 60 8.92776C60 8.68454 60.2238 8.4931 60.5 8.50016C60.7761 8.50722 61 8.70808 61 8.94894C61 11.3168 61 13.6839 61 16.051C61 16.2919 60.7761 16.4935 60.5 16.4998Z" fill="white" fill-opacity="0.6"/>
<path d="M62.5007 16.4998C62.2242 16.506 62 16.3413 62 16.1321C62 14.3773 62 12.6226 62 10.8678C62 10.6593 62.2242 10.4946 62.5007 10.5001C62.7772 10.5063 63 10.6785 63 10.8856C63 12.6287 63 14.3718 63 16.1143C63 16.3214 62.7772 16.4943 62.5007 16.4998Z" fill="white" fill-opacity="0.6"/>
<path d="M64.5 16.4997C64.2245 16.5079 64 16.3331 64 16.1095C64 13.7034 64 11.2973 64 8.89114C64 8.66681 64.2245 8.492 64.5 8.50025C64.7769 8.50925 65 8.69607 65 8.91815C65 11.3063 65 13.6944 65 16.0818C65 16.3039 64.7769 16.4914 64.5 16.4997Z" fill="white" fill-opacity="0.6"/>
<path d="M66.5007 16.4997C66.2234 16.5066 66 16.365 66 16.1822C66 14.3945 66 12.6061 66 10.8177C66 10.6356 66.2234 10.4933 66.5007 10.5002C66.7766 10.5077 67 10.6599 67 10.8402C67 12.6136 67 14.387 67 16.1598C67 16.3407 66.7766 16.4929 66.5007 16.4997Z" fill="white" fill-opacity="0.6"/>
<path d="M68.5 16.4997C68.2237 16.5077 68 16.3445 68 16.1351C68 14.3781 68 12.6211 68 10.8641C68 10.6555 68.2237 10.4922 68.5 10.5003C68.7763 10.5076 69 10.6818 69 10.889C69 12.6292 69 14.3701 69 16.111C69 16.3174 68.7763 16.4916 68.5 16.4997Z" fill="white" fill-opacity="0.6"/>
<path d="M70.5 16.4996C70.2243 16.5088 70 16.3273 70 16.0958C70 14.3658 70 12.6349 70 10.9049C70 10.6726 70.2243 10.4919 70.5 10.5002C70.7757 10.5094 71 10.7017 71 10.9307C71 12.6441 71 14.3566 71 16.0692C71 16.2982 70.7757 16.4913 70.5 16.4996Z" fill="white" fill-opacity="0.6"/>
<path d="M72.5 22.4961C72.2249 22.5242 72 22.3965 72 22.2105C72 16.4032 72 10.596 72 4.7888C72 4.60341 72.2249 4.47571 72.5 4.50386C72.7764 4.53201 73 4.70366 73 4.88698C73 10.629 73 16.371 73 22.113C73 22.2963 72.7764 22.4679 72.5 22.4961Z" fill="white" fill-opacity="0.6"/>
<path d="M74.5007 18.4977C74.2239 18.5185 74 18.3969 74 18.2265C74 14.4091 74 10.5916 74 6.77346C74 6.6031 74.2239 6.48151 74.5007 6.50232C74.7761 6.52312 75 6.67658 75 6.84434C75 10.615 75 14.3857 75 18.1563C75 18.3241 74.7761 18.4775 74.5007 18.4977Z" fill="white" fill-opacity="0.6"/>
<path d="M76.5 16.4989C76.2234 16.5142 76 16.3691 76 16.174C76 13.7244 76 11.2748 76 8.82514C76 8.63086 76.2234 8.48573 76.5 8.50108C76.7766 8.51567 77 8.68385 77 8.87506C77 11.2917 77 13.7083 77 16.1249C77 16.3161 76.7766 16.4835 76.5 16.4989Z" fill="white" fill-opacity="0.6"/>
<path d="M78.5007 14.4996C78.2238 14.5083 78 14.3821 78 14.2182C78 13.0725 78 11.9269 78 10.7812C78 10.6173 78.2238 10.4917 78.5007 10.5005C78.7763 10.5085 79 10.6462 79 10.8067C79 11.9356 79 13.0645 79 14.1927C79 14.3539 78.7763 14.4909 78.5007 14.4996Z" fill="white" fill-opacity="0.6"/>
<path d="M80.5007 16.4989C80.2243 16.5128 80 16.3925 80 16.2298C80 14.4099 80 12.59 80 10.7701C80 10.6081 80.2243 10.4872 80.5007 10.5011C80.7756 10.515 81 10.6554 81 10.8153C81 12.6053 81 14.3953 81 16.1854C81 16.3445 80.7756 16.485 80.5007 16.4989Z" fill="white" fill-opacity="0.6"/>
<path d="M82.5 16.4987C82.2239 16.5134 82 16.399 82 16.2425C82 14.4137 82 12.5856 82 10.7576C82 10.601 82.2239 10.4859 82.5 10.5014C82.7761 10.5168 83 10.6537 83 10.8067C83 12.6025 83 14.3975 83 16.1926C83 16.3463 82.7761 16.4832 82.5 16.4987Z" fill="white" fill-opacity="0.6"/>
</svg>
