<svg width="32" height="32" viewBox="0 0 32 32" fill="none" xmlns="http://www.w3.org/2000/svg">
<path d="M19.8389 13.5571C21.9149 15.6331 21.9149 18.999 19.8389 21.075C17.7629 23.1511 14.397 23.1511 12.3209 21.075C10.2449 18.999 10.2449 15.6331 12.3209 13.5571C14.397 11.4811 17.7629 11.4811 19.8389 13.5571" stroke="#303444" stroke-width="2" stroke-linecap="round" stroke-linejoin="round"/>
<path fill-rule="evenodd" clip-rule="evenodd" d="M28 12V24C28 25.4733 26.8067 26.6666 25.3333 26.6666H6.66667C5.19333 26.6666 4 25.4733 4 24V12C4 10.5266 5.19333 9.33331 6.66667 9.33331H9.33333L11.2827 5.99465C11.5213 5.58531 11.96 5.33331 12.4347 5.33331H19.5067C19.9747 5.33331 20.408 5.57865 20.6493 5.97865L22.6667 9.33331H25.3333C26.8067 9.33331 28 10.5266 28 12Z" stroke="#303444" stroke-width="2" stroke-linecap="round" stroke-linejoin="round"/>
</svg>
