<svg width="14" height="13" viewBox="0 0 14 13" fill="none" xmlns="http://www.w3.org/2000/svg">
<path fill-rule="evenodd" clip-rule="evenodd" d="M7 0C3.40986 0 0.5 2.90986 0.5 6.5C0.5 10.0901 3.40986 13 7 13C10.5901 13 13.5 10.0901 13.5 6.5C13.5 2.90986 10.5901 0 7 0ZM9.24022 4.25977C9.43548 4.45503 9.43548 4.77161 9.24022 4.96688L7.70711 6.49999L9.24022 8.0331C9.43548 8.22836 9.43548 8.54495 9.24022 8.74021C9.04496 8.93547 8.72837 8.93547 8.53311 8.74021L7 7.2071L5.46689 8.74021C5.27162 8.93547 4.95504 8.93547 4.75978 8.74021C4.56452 8.54495 4.56452 8.22836 4.75978 8.0331L6.29289 6.49999L4.75978 4.96688C4.56452 4.77161 4.56452 4.45503 4.75978 4.25977C4.95504 4.06451 5.27162 4.06451 5.46689 4.25977L7 5.79288L8.53311 4.25977C8.72837 4.06451 9.04496 4.06451 9.24022 4.25977Z" fill="#051335"/>
</svg>
