<svg width="16" height="17" viewBox="0 0 16 17" fill="none" xmlns="http://www.w3.org/2000/svg">
<path fill-rule="evenodd" clip-rule="evenodd" d="M1.5 8.5C1.5 4.90986 4.40986 2 8 2C11.5901 2 14.5 4.90986 14.5 8.5C14.5 12.0901 11.5901 15 8 15C4.40986 15 1.5 12.0901 1.5 8.5ZM11.0202 7.52022C11.2155 7.32496 11.2155 7.00838 11.0202 6.81311C10.825 6.61785 10.5084 6.61785 10.3131 6.81311L7.33333 9.79289L5.68689 8.14645C5.49162 7.95118 5.17504 7.95118 4.97978 8.14645C4.78452 8.34171 4.78452 8.65829 4.97978 8.85355L6.97978 10.8536C7.17504 11.0488 7.49162 11.0488 7.68689 10.8536L11.0202 7.52022Z" fill="white"/>
</svg>
