<svg width="25" height="24" viewBox="0 0 25 24" fill="none" xmlns="http://www.w3.org/2000/svg">
<circle cx="17.0019" cy="16.5019" r="4.50187" stroke="#002BC7" stroke-width="1.5" stroke-linecap="round" stroke-linejoin="round"/>
<path d="M14.5008 7.99805L6.32585 16.173C5.79519 16.7037 5.49707 17.4234 5.49707 18.1739C5.49707 18.9243 5.79519 19.644 6.32585 20.1747V20.1747C6.8565 20.7054 7.57622 21.0035 8.32668 21.0035C9.07714 21.0035 9.79686 20.7054 10.3275 20.1747L12.6931 17.8091" stroke="#002BC7" stroke-width="1.5" stroke-linecap="round" stroke-linejoin="round"/>
<path d="M3.49634 13.0003L12.0502 4.44645C12.9788 3.5178 14.2383 2.99609 15.5516 2.99609C16.8649 2.99609 18.1245 3.5178 19.0531 4.44645V4.44645C19.9817 5.37509 20.5035 6.6346 20.5035 7.94791C20.5035 9.26121 19.9817 10.5207 19.0531 11.4494L18.3097 12.1928" stroke="#002BC7" stroke-width="1.5" stroke-linecap="round" stroke-linejoin="round"/>
<path d="M18.5025 16.5022H15.5012" stroke="#002BC7" stroke-width="1.5" stroke-linecap="round" stroke-linejoin="round"/>
<path d="M17.0019 15.001V18.0022" stroke="#002BC7" stroke-width="1.5" stroke-linecap="round" stroke-linejoin="round"/>
</svg>
