<svg width="13" height="12" viewBox="0 0 13 12" fill="none" xmlns="http://www.w3.org/2000/svg">
<g id="eye">
<path id="Path" d="M7.91477 4.5865C8.69543 5.36717 8.69543 6.6345 7.91477 7.4165C7.1341 8.19717 5.86677 8.19717 5.08477 7.4165C4.3041 6.63583 4.3041 5.3685 5.08477 4.5865C5.86677 3.8045 7.13343 3.8045 7.91477 4.5865" stroke="#303444" stroke-width="0.833333" stroke-linecap="round" stroke-linejoin="round"/>
<path id="Path_2" fill-rule="evenodd" clip-rule="evenodd" d="M0.5 5.99992C0.5 5.56059 0.601333 5.12592 0.797333 4.72525V4.72525C1.80733 2.66059 4.03933 1.33325 6.5 1.33325C8.96067 1.33325 11.1927 2.66059 12.2027 4.72525V4.72525C12.3987 5.12592 12.5 5.56059 12.5 5.99992C12.5 6.43925 12.3987 6.87392 12.2027 7.27458V7.27458C11.1927 9.33925 8.96067 10.6666 6.5 10.6666C4.03933 10.6666 1.80733 9.33925 0.797333 7.27458V7.27458C0.601333 6.87392 0.5 6.43925 0.5 5.99992Z" stroke="#303444" stroke-width="0.833333" stroke-linecap="round" stroke-linejoin="round"/>
</g>
</svg>
