<svg width="24" height="24" viewBox="0 0 24 24" fill="none" xmlns="http://www.w3.org/2000/svg">
<path d="M7.5 9.08008V10.5801" stroke="#303444" stroke-width="1.5" stroke-linecap="round" stroke-linejoin="round"/>
<path d="M16.5 9.08008V10.5801" stroke="#303444" stroke-width="1.5" stroke-linecap="round" stroke-linejoin="round"/>
<path d="M11 13.5969H11.5C12.052 13.5969 12.5 13.1489 12.5 12.5969V9.09692" stroke="#303444" stroke-width="1.5" stroke-linecap="round" stroke-linejoin="round"/>
<path d="M15.242 16.157C13.452 17.947 10.549 17.947 8.75903 16.157" stroke="#303444" stroke-width="1.5" stroke-linecap="round" stroke-linejoin="round"/>
<path d="M7.588 3H5C3.895 3 3 3.895 3 5V7.588" stroke="#303444" stroke-width="1.5" stroke-linecap="round" stroke-linejoin="round"/>
<path d="M16.4121 21.0001H19.0001C20.1051 21.0001 21.0001 20.1051 21.0001 19.0001V16.4121" stroke="#303444" stroke-width="1.5" stroke-linecap="round" stroke-linejoin="round"/>
<path d="M3 16.4121V19.0001C3 20.1051 3.895 21.0001 5 21.0001H7.588" stroke="#303444" stroke-width="1.5" stroke-linecap="round" stroke-linejoin="round"/>
<path d="M21.0001 7.588V5C21.0001 3.895 20.1051 3 19.0001 3H16.4121" stroke="#303444" stroke-width="1.5" stroke-linecap="round" stroke-linejoin="round"/>
</svg>
