<svg width="24" height="24" viewBox="0 0 24 24" fill="none" xmlns="http://www.w3.org/2000/svg">
<path d="M3.51392 14.9999H6.00005C7.10462 14.9999 8.00005 14.1045 8.00005 12.9999V10.9999C8.00005 9.89536 8.89548 8.99993 10 8.99993H12C13.1046 8.99993 14 8.1045 14 6.99993V3.22461" stroke="#303444" stroke-width="1.5" stroke-linecap="round" stroke-linejoin="round"/>
<path d="M16.501 16.25C16.6389 16.2506 16.7504 16.3627 16.75 16.5007C16.7496 16.6386 16.6376 16.7502 16.4997 16.75C16.3617 16.7498 16.25 16.6379 16.25 16.5C16.2496 16.4334 16.276 16.3695 16.3232 16.3225C16.3704 16.2755 16.4344 16.2494 16.501 16.25" stroke="#303444" stroke-width="1.5" stroke-linecap="round" stroke-linejoin="round"/>
<path fill-rule="evenodd" clip-rule="evenodd" d="M13 16.5V16.5C13 14.567 14.567 13 16.5 13V13C18.433 13 20 14.567 20 16.5V16.5C20 18.1615 18.1433 19.9384 17.1338 20.7816C16.7609 21.0729 16.2376 21.0728 15.8648 20.7813C14.8563 19.9381 13 18.1613 13 16.5Z" stroke="#303444" stroke-width="1.5" stroke-linecap="round" stroke-linejoin="round"/>
<path d="M12 21C7.02944 21 3 16.9706 3 12C3 7.02944 7.02944 3 12 3C16.9706 3 21 7.02944 21 12" stroke="#303444" stroke-width="1.5" stroke-linecap="round" stroke-linejoin="round"/>
<path d="M20 16.5V16.5C20 14.567 18.433 13 16.5 13V13C14.567 13 13 14.567 13 16.5V16.5" stroke="#303444" stroke-width="1.5" stroke-linecap="round" stroke-linejoin="round"/>
</svg>
