<svg width="16" height="17" viewBox="0 0 16 17" fill="none" xmlns="http://www.w3.org/2000/svg">
<path fill-rule="evenodd" clip-rule="evenodd" d="M3.20422 2.9309C3.20422 2.67458 3.41201 2.4668 3.66832 2.4668H4.90593H11.0939H12.3315C12.5879 2.4668 12.7956 2.67458 12.7956 2.9309C12.7956 3.18722 12.5879 3.395 12.3315 3.395H12.1659C12.1731 3.44553 12.1768 3.49718 12.1768 3.5497V4.47791C12.1768 5.40308 11.7413 6.27426 11.0011 6.82936L8.77344 8.50012L11.0011 10.1709C11.7413 10.726 12.1768 11.5972 12.1768 12.5223V13.4505C12.1768 13.5031 12.1731 13.5547 12.1659 13.6053H12.3315C12.5879 13.6053 12.7956 13.813 12.7956 14.0694C12.7956 14.3257 12.5879 14.5335 12.3315 14.5335H3.66832C3.41201 14.5335 3.20422 14.3257 3.20422 14.0694C3.20422 13.813 3.41201 13.6053 3.66832 13.6053H3.83399C3.82676 13.5547 3.82302 13.5031 3.82302 13.4505V12.5223C3.82302 11.5972 4.25861 10.726 4.99875 10.1709L7.22643 8.50012L4.99875 6.82936C4.25861 6.27426 3.82302 5.40308 3.82302 4.47791V3.5497C3.82302 3.49718 3.82676 3.44553 3.83399 3.395H3.66832C3.41201 3.395 3.20422 3.18722 3.20422 2.9309ZM5.55567 10.9135L7.99993 9.08025L10.4442 10.9135C10.9506 11.2933 11.2486 11.8893 11.2486 12.5223V13.4505C11.2486 13.536 11.1794 13.6052 11.0939 13.6052H4.90593C4.82049 13.6052 4.75123 13.536 4.75123 13.4505V12.5223C4.75123 11.8893 5.04926 11.2933 5.55567 10.9135Z" fill="white"/>
</svg>
