<svg width="24" height="24" viewBox="0 0 24 24" fill="none" xmlns="http://www.w3.org/2000/svg">
<path d="M19.4198 19.6614V21.9196C19.4198 22.1556 19.2776 22.3684 19.0596 22.4587C18.8415 22.5491 18.5905 22.4991 18.4236 22.3322L15.7527 19.6614" stroke="#303444" stroke-width="1.75" stroke-linecap="round" stroke-linejoin="round"/>
<path d="M18.8363 9.08203H19.424C21.0332 9.08203 22.3377 10.3866 22.3377 11.9958V16.7476C22.3377 18.3568 21.0332 19.6613 19.424 19.6613V19.6613" stroke="#303444" stroke-width="1.75" stroke-linecap="round" stroke-linejoin="round"/>
<path d="M15.7569 19.6614H12.4128C10.8035 19.6614 9.49902 18.3569 9.49902 16.7477V15.5015" stroke="#303444" stroke-width="1.75" stroke-linecap="round" stroke-linejoin="round"/>
<path fill-rule="evenodd" clip-rule="evenodd" d="M7.98878 12L5.24305 14.7458C5.07615 14.9127 4.82514 14.9626 4.60707 14.8723C4.38901 14.782 4.24683 14.5692 4.24683 14.3331V12H4.2427C3.46992 12 2.72879 11.693 2.18236 11.1466C1.63592 10.6001 1.32895 9.85899 1.32895 9.08621V4.40936C1.32895 2.80014 2.63348 1.49561 4.2427 1.49561H12.421C14.0303 1.49561 15.3348 2.80014 15.3348 4.40936V9.08621C15.3348 9.85899 15.0278 10.6001 14.4814 11.1466C13.9349 11.693 13.1938 12 12.421 12H7.98878Z" stroke="#303444" stroke-width="1.75" stroke-linecap="round" stroke-linejoin="round"/>
</svg>
