<svg width="24" height="24" viewBox="0 0 24 24" fill="none" xmlns="http://www.w3.org/2000/svg">
<path fill-rule="evenodd" clip-rule="evenodd" d="M16.3574 2.09503C13.9074 0.134991 10.426 0.134989 7.97602 2.09503L3.30935 5.82836C1.71804 7.10141 0.791683 9.02879 0.791672 11.0667V16.6667C0.791672 20.3716 3.7951 23.375 7.50001 23.375H16.8333C20.5383 23.375 23.5417 20.3716 23.5417 16.6667V11.0667C23.5417 9.02881 22.6153 7.10143 21.0241 5.82836L16.3574 2.09503ZM8.15839 15.6962C7.67514 15.6962 7.28339 16.088 7.28339 16.5712C7.28339 17.0545 7.67514 17.4462 8.15839 17.4462H16.0171C16.5003 17.4462 16.8921 17.0545 16.8921 16.5712C16.8921 16.088 16.5003 15.6962 16.0171 15.6962H8.15839Z" fill="#002BC7"/>
</svg>
