<svg width="24" height="24" viewBox="0 0 24 24" fill="none" xmlns="http://www.w3.org/2000/svg">
<path fill-rule="evenodd" clip-rule="evenodd" d="M15.6342 19.0427C15.9759 18.701 16.5299 18.7009 16.8716 19.0427L19.045 21.216V19.6614C19.045 19.1781 19.4368 18.7864 19.92 18.7864C20.4033 18.7864 20.795 19.1781 20.795 19.6614V21.9196C20.795 22.5096 20.4396 23.0414 19.8946 23.2671C19.3496 23.4929 18.7223 23.3681 18.3051 22.951L18.3051 22.951L15.6342 20.2801C15.2925 19.9384 15.2925 19.3844 15.6342 19.0427Z" fill="#002BC7"/>
<path fill-rule="evenodd" clip-rule="evenodd" d="M18.4614 9.08203C18.4614 8.59878 18.8532 8.20703 19.3364 8.20703H19.9241C22.0166 8.20703 23.7129 9.90331 23.7129 11.9958V16.7476C23.7129 18.8401 22.0166 20.5363 19.9241 20.5363C19.4409 20.5363 19.0491 20.1446 19.0491 19.6613C19.0491 19.1781 19.4409 18.7863 19.9241 18.7863C21.0501 18.7863 21.9629 17.8736 21.9629 16.7476V11.9958C21.9629 10.8698 21.0501 9.95703 19.9241 9.95703H19.3364C18.8532 9.95703 18.4614 9.56528 18.4614 9.08203Z" fill="#002BC7"/>
<path fill-rule="evenodd" clip-rule="evenodd" d="M9.99927 14.6265C10.4825 14.6265 10.8743 15.0182 10.8743 15.5015V16.7477C10.8743 17.8737 11.787 18.7864 12.913 18.7864H16.2571C16.7404 18.7864 17.1321 19.1782 17.1321 19.6614C17.1321 20.1447 16.7404 20.5364 16.2571 20.5364H12.913C10.8205 20.5364 9.12427 18.8402 9.12427 16.7477V15.5015C9.12427 15.0182 9.51602 14.6265 9.99927 14.6265Z" fill="#002BC7"/>
<path fill-rule="evenodd" clip-rule="evenodd" d="M0.954102 4.40936C0.954102 2.31689 2.65038 0.620605 4.74285 0.620605H12.9212C15.0137 0.620605 16.7099 2.31689 16.7099 4.40936V9.08621C16.7099 10.091 16.3108 11.0547 15.6002 11.7653C14.8897 12.4758 13.926 12.875 12.9212 12.875H8.85138L6.36193 15.3645C5.94478 15.7816 5.3174 15.9064 4.77236 15.6807C4.22731 15.4549 3.87198 14.923 3.87198 14.3331V12.7735C3.19284 12.6131 2.56526 12.2667 2.06379 11.7653C1.35326 11.0547 0.954102 10.091 0.954102 9.08621V4.40936Z" fill="#002BC7"/>
</svg>
