<svg width="33" height="32" viewBox="0 0 33 32" fill="none" xmlns="http://www.w3.org/2000/svg">
<path d="M6.25003 16.6668V14.3389C6.24733 13.8791 6.43511 13.4388 6.76877 13.1225C7.10242 12.8062 7.55216 12.6422 8.0111 12.6694C10.9077 12.7616 13.7371 13.5651 16.2499 15.0089C18.7626 13.5651 21.5921 12.7616 24.4886 12.6694C24.9476 12.6422 25.3974 12.8062 25.731 13.1225C26.0647 13.4388 26.2525 13.8792 26.2498 14.3389L26.2499 16.6668" stroke="#303444" stroke-width="2.84" stroke-linecap="round" stroke-linejoin="round"/>
<path d="M6.25 22V24.2868C6.25476 25.0023 6.82057 25.5878 7.5354 25.6171C10.6047 25.5906 13.6212 26.4155 16.2499 28C18.8787 26.4154 21.8952 25.5906 24.9645 25.6171C25.6793 25.5878 26.2451 25.0023 26.2499 24.2868V22" stroke="#303444" stroke-width="2.84" stroke-linecap="round" stroke-linejoin="round"/>
<path d="M16.2502 15.0088V28" stroke="#303444" stroke-width="2.84" stroke-linecap="round" stroke-linejoin="round"/>
<circle cx="16.2502" cy="6.33317" r="3.66667" stroke="#303444" stroke-width="2.84" stroke-linecap="round" stroke-linejoin="round"/>
<path fill-rule="evenodd" clip-rule="evenodd" d="M5.58333 16.6665H6.91667C8.38943 16.6665 9.58333 17.8604 9.58333 19.3332V19.3332C9.58333 20.8059 8.38943 21.9998 6.91667 21.9998H5.58333C4.84695 21.9998 4.25 21.4029 4.25 20.6665V17.9998C4.25 17.2635 4.84695 16.6665 5.58333 16.6665Z" stroke="#303444" stroke-width="2.84" stroke-linecap="round" stroke-linejoin="round"/>
<path fill-rule="evenodd" clip-rule="evenodd" d="M26.9167 22H25.5833C24.1106 22 22.9167 20.8061 22.9167 19.3333V19.3333C22.9167 17.8606 24.1106 16.6667 25.5833 16.6667H26.9167C27.653 16.6667 28.25 17.2636 28.25 18V20.6667C28.25 21.403 27.653 22 26.9167 22Z" stroke="#303444" stroke-width="2.84" stroke-linecap="round" stroke-linejoin="round"/>
</svg>
