<svg width="23" height="24" viewBox="0 0 23 24" fill="none" xmlns="http://www.w3.org/2000/svg">
<path fill-rule="evenodd" clip-rule="evenodd" d="M5.66667 0.625C2.60609 0.625 0.125 3.10609 0.125 6.16667V10.25V12V17.8333C0.125 20.8939 2.60609 23.375 5.66667 23.375H17.3333C20.3939 23.375 22.875 20.8939 22.875 17.8333V12V10.25V6.16667C22.875 3.10609 20.3939 0.625 17.3333 0.625H5.66667ZM21.125 6.74968V6.16667C21.125 4.07259 19.4274 2.375 17.3333 2.375H5.66667C3.57259 2.375 1.875 4.07259 1.875 6.16667V6.74968C2.6062 6.20045 3.51509 5.875 4.5 5.875H18.5C19.4849 5.875 20.3938 6.20045 21.125 6.74968ZM1.875 10.25V11.125H5.58457C6.65728 11.125 7.65902 11.6611 8.25406 12.5537L8.60041 13.0732C9.24673 14.0427 10.3348 14.625 11.5 14.625C12.6652 14.625 13.7533 14.0427 14.3996 13.0732L14.7459 12.5537C15.341 11.6611 16.3427 11.125 17.4154 11.125H21.125V10.25C21.125 8.80025 19.9497 7.625 18.5 7.625H4.5C3.05025 7.625 1.875 8.80025 1.875 10.25Z" fill="#002BC7"/>
</svg>
