<svg width="32" height="32" viewBox="0 0 32 32" fill="none" xmlns="http://www.w3.org/2000/svg">
<rect x="28" y="28" width="24" height="24" rx="6.66667" transform="rotate(-180 28 28)" stroke="#303444" stroke-width="2" stroke-linecap="round" stroke-linejoin="round"/>
<path d="M4.48053 23.8233L10.1894 18.1144C10.6895 17.6143 11.3678 17.3333 12.0751 17.3333C12.7823 17.3333 13.4606 17.6143 13.9607 18.1144L23.4897 27.6434" stroke="#303444" stroke-width="2" stroke-linecap="round" stroke-linejoin="round"/>
<path d="M28 19.6074L23.8404 15.4477C23.3403 14.9476 22.662 14.6667 21.9547 14.6667C21.2475 14.6667 20.5692 14.9476 20.0691 15.4477L15.684 19.8328" stroke="#303444" stroke-width="2" stroke-linecap="round" stroke-linejoin="round"/>
<path d="M11.8817 11.2159L11.882 11.2156C11.947 11.1537 12.0499 11.1562 12.1118 11.2212C12.1737 11.2861 12.1713 11.389 12.1064 11.451C12.0415 11.5129 11.9386 11.5106 11.8766 11.4457C11.8146 11.3808 11.8169 11.2779 11.8817 11.2159" stroke="#303444" stroke-width="2" stroke-linecap="round" stroke-linejoin="round"/>
</svg>
