<svg width="16" height="16" viewBox="0 0 16 16" fill="none" xmlns="http://www.w3.org/2000/svg">
<path d="M15.4667 10.6667C14 10.6667 12.8 9.46667 12.8 8H2.34668V13.6533C3.78668 15.0933 5.78668 16 8.00001 16C11.4933 16 14.4533 13.76 15.5467 10.6667H15.4667Z" fill="#E31D1C"/>
<path d="M15.4667 5.33333H15.5467C14.4533 2.24 11.4933 0 8.00001 0C5.78668 0 3.78668 0.906667 2.34668 2.34667V8H12.8C12.8 6.53333 14 5.33333 15.4667 5.33333Z" fill="#009933"/>
<path d="M15.5467 5.33333H2.34668V10.6667H15.5467C15.84 9.83999 16 8.93333 16 7.99999C16 7.06666 15.84 6.15999 15.5467 5.33333Z" fill="white"/>
<path d="M2.34667 2.34666C0.906667 3.78666 0 5.78666 0 8C0 10.2133 0.906667 12.2133 2.34667 13.6533L5.33333 10.6667V5.33333L2.34667 2.34666Z" fill="#272727"/>
</svg>
