<svg width="24" height="24" viewBox="0 0 24 24" fill="none" xmlns="http://www.w3.org/2000/svg">
<path d="M19.0752 18.6841L16.9502 14.4341L14.8252 18.6841" stroke="#303444" stroke-width="1.5" stroke-linecap="round" stroke-linejoin="round"/>
<path d="M15.2002 17.9341H18.7002" stroke="#303444" stroke-width="1.5" stroke-linecap="round" stroke-linejoin="round"/>
<path fill-rule="evenodd" clip-rule="evenodd" d="M16.9501 21.9999V21.9999C14.1611 21.9999 11.9001 19.7389 11.9001 16.9499V16.9499C11.9001 14.1609 14.1611 11.8999 16.9501 11.8999V11.8999C19.7391 11.8999 22.0001 14.1609 22.0001 16.9499V16.9499C22.0001 19.7389 19.7391 21.9999 16.9501 21.9999Z" stroke="#303444" stroke-width="1.5" stroke-linecap="round" stroke-linejoin="round"/>
<path fill-rule="evenodd" clip-rule="evenodd" d="M5.1001 2.1001H9.0001C10.6571 2.1001 12.0001 3.4431 12.0001 5.1001V9.0001C12.0001 10.6571 10.6571 12.0001 9.0001 12.0001H5.1001C3.4431 12.0001 2.1001 10.6571 2.1001 9.0001V5.1001C2.1001 3.4431 3.4431 2.1001 5.1001 2.1001Z" stroke="#303444" stroke-width="1.5" stroke-linecap="round" stroke-linejoin="round"/>
<path d="M9.07003 5.93018H5.03003" stroke="#303444" stroke-width="1.5" stroke-linecap="round" stroke-linejoin="round"/>
<path d="M7.05005 5.25033V5.93033" stroke="#303444" stroke-width="1.5" stroke-linecap="round" stroke-linejoin="round"/>
<path d="M8.06215 5.92529C8.06215 7.66529 6.70215 9.07529 5.02515 9.07529" stroke="#303444" stroke-width="1.5" stroke-linecap="round" stroke-linejoin="round"/>
<path d="M9.07513 9.0752C8.34713 9.0752 7.69613 8.6872 7.23413 8.0752" stroke="#303444" stroke-width="1.5" stroke-linecap="round" stroke-linejoin="round"/>
<path d="M14.5652 4.91602H16.0312C18.0552 4.91602 19.6952 6.55702 19.6952 8.58002" stroke="#303444" stroke-width="1.5" stroke-linecap="round" stroke-linejoin="round"/>
<path d="M14.5652 4.91602L15.6642 6.01502" stroke="#303444" stroke-width="1.5" stroke-linecap="round" stroke-linejoin="round"/>
<path d="M15.6642 3.81592L14.5652 4.91492" stroke="#303444" stroke-width="1.5" stroke-linecap="round" stroke-linejoin="round"/>
<path d="M9.43518 19.0839H7.96918C5.94518 19.0839 4.30518 17.4429 4.30518 15.4199" stroke="#303444" stroke-width="1.5" stroke-linecap="round" stroke-linejoin="round"/>
<path d="M9.43518 19.0839L8.33618 17.9849" stroke="#303444" stroke-width="1.5" stroke-linecap="round" stroke-linejoin="round"/>
<path d="M8.33618 20.184L9.43518 19.085" stroke="#303444" stroke-width="1.5" stroke-linecap="round" stroke-linejoin="round"/>
</svg>
