<svg width="24" height="24" viewBox="0 0 24 24" fill="none" xmlns="http://www.w3.org/2000/svg">
<path d="M6.126 13.7998L3 16.9998L5.5 18.4998L7 20.9998L10.899 16.9048" stroke="#303444" stroke-width="1.5" stroke-linecap="round" stroke-linejoin="round"/>
<path d="M13.1011 16.9048L17.0001 20.9998L18.5001 18.4998L21.0001 16.9998L17.8741 13.7998" stroke="#303444" stroke-width="1.5" stroke-linecap="round" stroke-linejoin="round"/>
<path d="M16.9497 5.05025C19.6834 7.78392 19.6834 12.2161 16.9497 14.9497C14.2161 17.6834 9.78392 17.6834 7.05025 14.9497C4.31658 12.2161 4.31658 7.78392 7.05025 5.05025C9.78392 2.31658 14.2161 2.31658 16.9497 5.05025" stroke="#303444" stroke-width="1.5" stroke-linecap="round" stroke-linejoin="round"/>
<path fill-rule="evenodd" clip-rule="evenodd" d="M11.9989 12.5843L13.7959 13.5283C14.1459 13.7123 14.5549 13.4153 14.4879 13.0253L14.1449 11.0243L15.5989 9.60829C15.8819 9.33229 15.7259 8.85129 15.3349 8.79429L13.3259 8.50229L12.4279 6.68129C12.2529 6.32629 11.7479 6.32629 11.5729 6.68129L10.6749 8.50229L8.66491 8.79529C8.27391 8.85229 8.11791 9.33329 8.40091 9.60929L9.85491 11.0253L9.51191 13.0263C9.44491 13.4163 9.85391 13.7133 10.2039 13.5293L12.0009 12.5853H11.9989V12.5843Z" stroke="#303444" stroke-width="1.5" stroke-linecap="round" stroke-linejoin="round"/>
</svg>
