<svg width="16" height="16" viewBox="0 0 16 16" fill="none" xmlns="http://www.w3.org/2000/svg">
<g id="message-chat">
<path id="Path" d="M12.8771 12.925V14.3768C12.8771 14.5285 12.7857 14.6653 12.6455 14.7233C12.5053 14.7814 12.3439 14.7493 12.2366 14.642L10.5197 12.925" stroke="white" stroke-width="1.5" stroke-linecap="round" stroke-linejoin="round"/>
<path id="Path_2" d="M12.502 6.12402H12.8798C13.9143 6.12402 14.7529 6.96265 14.7529 7.99715V11.0519C14.7529 12.0864 13.9143 12.925 12.8798 12.925V12.925" stroke="white" stroke-width="1.5" stroke-linecap="round" stroke-linejoin="round"/>
<path id="Path_3" d="M10.5223 12.925H8.37251C7.33802 12.925 6.49939 12.0864 6.49939 11.0519V10.2507" stroke="white" stroke-width="1.5" stroke-linecap="round" stroke-linejoin="round"/>
<path id="Path_4" fill-rule="evenodd" clip-rule="evenodd" d="M5.52851 7.99988L3.7634 9.76504C3.65611 9.87234 3.49474 9.90443 3.35456 9.84636C3.21437 9.78829 3.12297 9.65149 3.12297 9.49976V7.99988H3.12032C2.62353 7.99988 2.14709 7.80253 1.79581 7.45125C1.44453 7.09997 1.24719 6.62353 1.24719 6.12674V3.1202C1.24719 2.0857 2.08582 1.24707 3.12032 1.24707H8.37782C9.41232 1.24707 10.2509 2.0857 10.2509 3.1202V6.12674C10.2509 6.62353 10.0536 7.09997 9.70232 7.45125C9.35104 7.80253 8.8746 7.99988 8.37782 7.99988H5.52851Z" stroke="white" stroke-width="1.5" stroke-linecap="round" stroke-linejoin="round"/>
</g>
</svg>
