<svg width="24" height="24" viewBox="0 0 24 24" fill="none" xmlns="http://www.w3.org/2000/svg">
<path fill-rule="evenodd" clip-rule="evenodd" d="M11.9997 2.49634C9.87979 2.49702 8.16139 4.21542 8.16071 6.33538V11.4848C8.16139 13.6047 9.87979 15.3234 11.9997 15.3241C13.0182 15.3244 13.9949 14.92 14.7151 14.1998C15.4351 13.4798 15.8395 12.5031 15.8393 11.4848V6.33562C15.8386 4.21566 14.1197 2.49702 11.9997 2.49634ZM4.99707 10.8998C5.41128 10.8998 5.74707 11.2356 5.74707 11.6498C5.74707 15.1032 8.5466 17.9028 12 17.9028C15.4534 17.9028 18.2529 15.1032 18.2529 11.6498C18.2529 11.2356 18.5887 10.8998 19.0029 10.8998C19.4171 10.8998 19.7529 11.2356 19.7529 11.6498C19.7529 15.6786 16.6799 18.9897 12.75 19.3669V20.7536C12.75 21.1679 12.4142 21.5036 12 21.5036C11.5858 21.5036 11.25 21.1679 11.25 20.7536V19.3669C7.32008 18.9897 4.24707 15.6786 4.24707 11.6498C4.24707 11.2356 4.58286 10.8998 4.99707 10.8998Z" fill="#002BC7"/>
</svg>
