<svg width="16" height="16" viewBox="0 0 16 16" fill="none" xmlns="http://www.w3.org/2000/svg">
<path d="M14.0026 8.00006V10.6678C14.0026 12.5096 12.5096 14.0026 10.6678 14.0026H5.33228C3.49056 14.0026 1.99756 12.5096 1.99756 10.6678V5.33228C1.99756 3.49056 3.49056 1.99756 5.33228 1.99756H8.00006" stroke="white" stroke-linecap="round" stroke-linejoin="round"/>
<path fill-rule="evenodd" clip-rule="evenodd" d="M11.5877 2.41124C11.8531 2.14605 12.213 1.99722 12.5882 1.99756C12.9634 1.99789 13.323 2.14736 13.5879 2.41303V2.41303C13.8533 2.67833 14.0023 3.0382 14.0023 3.41344C14.0023 3.78867 13.8531 4.14851 13.5877 4.41373C13.5872 4.41331 10.8024 7.19798 9.83944 8.16094C9.62963 8.37072 9.35563 8.50423 9.06111 8.54017L8.0755 8.66189C7.87109 8.68713 7.66658 8.61571 7.52233 8.4687C7.37807 8.32168 7.31054 8.11586 7.33966 7.91196L7.48547 6.89087C7.52519 6.60641 7.6565 6.34263 7.85953 6.13947C8.53348 5.46522 10.1804 3.81818 11.5877 2.41124Z" stroke="white" stroke-linecap="round" stroke-linejoin="round"/>
</svg>
