<svg width="16" height="16" viewBox="0 0 16 16" fill="none" xmlns="http://www.w3.org/2000/svg">
<g id="phone-call">
<path id="Path" fill-rule="evenodd" clip-rule="evenodd" d="M7.04671 8.95331C6.07171 7.97831 5.33671 6.88664 4.84837 5.77914C4.74504 5.54497 4.80587 5.27081 4.98671 5.08997L5.66921 4.40831C6.22837 3.84914 6.22837 3.05831 5.74004 2.56997L4.76171 1.59164C4.11087 0.940807 3.05587 0.940807 2.40504 1.59164L1.86171 2.13497C1.24421 2.75247 0.986707 3.64331 1.15337 4.52664C1.56504 6.70414 2.83004 9.08831 4.87087 11.1291C6.91171 13.17 9.29587 14.435 11.4734 14.8466C12.3567 15.0133 13.2475 14.7558 13.865 14.1383L14.4075 13.5958C15.0584 12.945 15.0584 11.89 14.4075 11.2391L13.43 10.2616C12.9417 9.77331 12.15 9.77331 11.6625 10.2616L10.91 11.015C10.7292 11.1958 10.455 11.2566 10.2209 11.1533C9.11337 10.6641 8.02171 9.92831 7.04671 8.95331Z" stroke="#002BC7" stroke-width="1.25" stroke-linecap="round" stroke-linejoin="round"/>
</g>
</svg>
