<svg width="32" height="32" viewBox="0 0 32 32" fill="none" xmlns="http://www.w3.org/2000/svg">
<rect x="28" y="28" width="24" height="24" rx="6.66667" transform="rotate(-180 28 28)" stroke="#303444" stroke-width="2" stroke-linecap="round" stroke-linejoin="round"/>
<path d="M4.48047 23.8233L10.1894 18.1144C10.6895 17.6143 11.3678 17.3333 12.075 17.3333C12.7822 17.3333 13.4605 17.6143 13.9606 18.1144L23.4897 27.6434" stroke="#303444" stroke-width="2" stroke-linecap="round" stroke-linejoin="round"/>
<path d="M27.9998 19.6074L23.8402 15.4477C23.3401 14.9476 22.6618 14.6667 21.9546 14.6667C21.2473 14.6667 20.569 14.9476 20.0689 15.4477L15.6838 19.8328" stroke="#303444" stroke-width="2" stroke-linecap="round" stroke-linejoin="round"/>
<path d="M11.8817 11.2159L11.8819 11.2156C11.9469 11.1537 12.0498 11.1562 12.1117 11.2212C12.1737 11.2861 12.1712 11.389 12.1063 11.451C12.0414 11.5129 11.9385 11.5106 11.8765 11.4457C11.8145 11.3808 11.8168 11.2779 11.8817 11.2159" stroke="#303444" stroke-width="2" stroke-linecap="round" stroke-linejoin="round"/>
</svg>
