<svg width="20" height="20" viewBox="0 0 20 20" fill="none" xmlns="http://www.w3.org/2000/svg">
<path d="M15.229 16.3319L14.911 15.5339C14.75 15.1289 14.501 14.7659 14.181 14.4699L14.123 14.4159C13.62 13.9499 12.96 13.6899 12.274 13.6899H7.72402C7.03802 13.6899 6.37702 13.9499 5.87402 14.4149L5.81602 14.4689C5.49702 14.7649 5.24802 15.1279 5.08602 15.5329L4.77002 16.3319" stroke="#303444" stroke-width="1.5" stroke-linecap="round" stroke-linejoin="round"/>
<path d="M12.2461 5.92989C13.4861 7.16989 13.4861 9.18089 12.2461 10.4219C11.0061 11.6629 8.99511 11.6619 7.75411 10.4219C6.51311 9.18189 6.51411 7.17089 7.75411 5.92989C8.99411 4.68889 11.0051 4.68989 12.2461 5.92989" stroke="#303444" stroke-width="1.5" stroke-linecap="round" stroke-linejoin="round"/>
<path fill-rule="evenodd" clip-rule="evenodd" d="M17 19H3C1.895 19 1 18.105 1 17V3C1 1.895 1.895 1 3 1H17C18.105 1 19 1.895 19 3V17C19 18.105 18.105 19 17 19Z" stroke="#303444" stroke-width="1.5" stroke-linecap="round" stroke-linejoin="round"/>
</svg>
