<svg width="34" height="34" viewBox="0 0 34 34" fill="none" xmlns="http://www.w3.org/2000/svg">
<path fill-rule="evenodd" clip-rule="evenodd" d="M25.2643 8.73569C20.7001 4.17144 13.3 4.17144 8.73575 8.73569L8.73575 8.73569C4.1715 13.2999 4.1715 20.7 8.73575 25.2643C13.3 29.8285 20.7001 29.8285 25.2643 25.2643C29.8284 20.7002 29.8286 13.3005 25.2648 8.73618C25.2647 8.73602 25.2645 8.73585 25.2643 8.73569ZM26.7669 7.23309C32.1611 12.6272 32.1611 21.3728 26.7669 26.7669C21.3728 32.161 12.6272 32.161 7.23315 26.7669C1.83903 21.3728 1.83903 12.6272 7.23315 7.23309C12.6273 1.83897 21.3729 1.83897 26.7669 7.23309Z" fill="#FF4956"/>
<path fill-rule="evenodd" clip-rule="evenodd" d="M21.7578 12.2412C19.1298 9.61383 14.8695 9.61402 12.2417 12.2417C9.61376 14.8696 9.61376 19.1303 12.2417 21.7582C14.8697 24.3861 19.1304 24.3861 21.7584 21.7582C24.3864 19.1303 24.3858 14.8691 21.7578 12.2412Z" fill="#FF4956"/>
</svg>
