<svg width="24" height="24" viewBox="0 0 24 24" fill="none" xmlns="http://www.w3.org/2000/svg">
<path fill-rule="evenodd" clip-rule="evenodd" d="M5.57538 2.95577C4.88875 2.61244 4.06468 2.70312 3.46913 3.18755C2.87354 3.67201 2.61697 4.46043 2.81337 5.20263L4.6138 12L2.81341 18.7972C2.61702 19.5394 2.87354 20.3279 3.46913 20.8124C4.06472 21.2969 4.88886 21.3875 5.57552 21.0441L20.1735 13.747C20.8353 13.4163 21.2535 12.7399 21.2535 12C21.2535 11.2601 20.8354 10.5837 20.1735 10.253L5.57538 2.95577ZM6.38965 11.25C5.97543 11.25 5.63965 11.5858 5.63965 12C5.63965 12.4142 5.97543 12.75 6.38965 12.75H11.8828C12.297 12.75 12.6328 12.4142 12.6328 12C12.6328 11.5858 12.297 11.25 11.8828 11.25H6.38965Z" fill="#002BC7"/>
</svg>
