<svg width="16" height="17" viewBox="0 0 16 17" fill="none" xmlns="http://www.w3.org/2000/svg">
<path fill-rule="evenodd" clip-rule="evenodd" d="M8.49998 2.16699C8.49998 1.89085 8.27612 1.66699 7.99998 1.66699C7.72384 1.66699 7.49998 1.89085 7.49998 2.16699V2.8707C7.49998 3.14684 7.72384 3.3707 7.99998 3.3707C8.27612 3.3707 8.49998 3.14684 8.49998 2.8707V2.16699ZM6.93835 5.20484C7.13772 4.80066 7.54931 4.54476 7.99998 4.54476C8.45066 4.54476 8.86224 4.80066 9.06162 5.20484L9.56185 6.2189C9.58862 6.27315 9.64037 6.31076 9.70024 6.31947L10.8191 6.48208C11.2649 6.54688 11.6353 6.85913 11.7746 7.28759C11.9139 7.71604 11.7979 8.18641 11.4753 8.50098L10.6656 9.29082C10.6223 9.33304 10.6025 9.39385 10.6128 9.45345L10.8039 10.5676C10.88 11.0117 10.6975 11.4605 10.333 11.7254C9.9685 11.9902 9.48525 12.0252 9.08641 11.8156L8.08551 11.2896C8.03198 11.2614 7.96801 11.2614 7.91449 11.2896L6.91355 11.8156C6.51471 12.0253 6.03144 11.9903 5.66694 11.7254C5.30244 11.4605 5.11991 11.0117 5.19608 10.5676L5.38718 9.45347C5.3974 9.39387 5.37766 9.33304 5.33437 9.29082L4.52462 8.50098C4.20211 8.18641 4.0861 7.71603 4.22538 7.28759C4.36466 6.85913 4.73507 6.54688 5.18091 6.48208L6.29973 6.31947C6.35959 6.31076 6.41135 6.27316 6.43811 6.2189L6.93835 5.20484ZM14.4973 6.38919C14.5826 6.65182 14.4389 6.9339 14.1763 7.01924L13.5072 7.23666C13.2446 7.322 12.9625 7.17828 12.8771 6.91566C12.7918 6.65303 12.9355 6.37095 13.1981 6.28561L13.8672 6.06819C14.1298 5.98285 14.4119 6.12657 14.4973 6.38919ZM2.80178 10.7151C3.06441 10.6297 3.20815 10.3477 3.12283 10.085C3.03751 9.8224 2.75545 9.67866 2.49281 9.76398L1.82368 9.98135C1.56105 10.0667 1.41731 10.3487 1.50263 10.6114C1.58794 10.874 1.87001 11.0177 2.13264 10.9324L2.80178 10.7151ZM7.99998 13.63C8.27612 13.63 8.49998 13.8538 8.49998 14.13V14.8336C8.49998 15.1098 8.27612 15.3336 7.99998 15.3336C7.72384 15.3336 7.49998 15.1098 7.49998 14.8336V14.13C7.49998 13.8538 7.72384 13.63 7.99998 13.63ZM11.0118 12.6457C11.2353 12.4834 11.5479 12.533 11.7102 12.7564L12.1234 13.3251C12.2857 13.5485 12.2362 13.8612 12.0128 14.0235C11.7894 14.1858 11.4767 14.1363 11.3144 13.9129L10.9012 13.3441C10.7389 13.1207 10.7884 12.808 11.0118 12.6457ZM4.68559 3.08775C4.52328 2.86434 4.2106 2.8148 3.98719 2.9771C3.76378 3.13941 3.71424 3.45209 3.87654 3.6755L4.28972 4.24425C4.45202 4.46767 4.7647 4.51721 4.98811 4.3549C5.21153 4.1926 5.26107 3.87992 5.09877 3.65651L4.68559 3.08775ZM1.50264 6.3892C1.58797 6.12658 1.87005 5.98285 2.13267 6.06819L2.80181 6.28561C3.06443 6.37094 3.20816 6.65302 3.12282 6.91565C3.03749 7.17827 2.75541 7.322 2.49278 7.23666L1.82365 7.01924C1.56102 6.93391 1.4173 6.65183 1.50264 6.3892ZM13.5072 9.76399C13.2445 9.67865 12.9625 9.82238 12.8771 10.085C12.7918 10.3476 12.9355 10.6297 13.1981 10.715L13.8673 10.9325C14.1299 11.0178 14.412 10.8741 14.4973 10.6114C14.5826 10.3488 14.4389 10.0667 14.1763 9.9814L13.5072 9.76399ZM12.0128 2.9771C12.2362 3.13941 12.2857 3.45209 12.1234 3.6755L11.7102 4.24425C11.5479 4.46767 11.2353 4.51721 11.0118 4.3549C10.7884 4.1926 10.7389 3.87992 10.9012 3.65651L11.3144 3.08775C11.4767 2.86434 11.7894 2.8148 12.0128 2.9771ZM5.09877 13.3441C5.26107 13.1207 5.21153 12.808 4.98811 12.6457C4.7647 12.4834 4.45202 12.533 4.28972 12.7564L3.87654 13.3251C3.71424 13.5485 3.76378 13.8612 3.98719 14.0235C4.2106 14.1858 4.52328 14.1363 4.68559 13.9129L5.09877 13.3441Z" fill="white"/>
</svg>
