<svg width="21" height="18" viewBox="0 0 21 18" fill="none" xmlns="http://www.w3.org/2000/svg">
<path d="M1 7V3.5C1 2.11929 2.11929 1 3.5 1H16.5C17.8807 1 19 2.11929 19 3.5V6.5" stroke="#303444" stroke-width="1.5" stroke-linecap="round" stroke-linejoin="round"/>
<path d="M19 11.5V14.5C19 15.8807 17.8807 17 16.5 17H9" stroke="#303444" stroke-width="1.5" stroke-linecap="round" stroke-linejoin="round"/>
<path d="M4 16V11" stroke="#303444" stroke-width="1.5" stroke-linecap="round" stroke-linejoin="round"/>
<path d="M2 13L4 11" stroke="#303444" stroke-width="1.5" stroke-linecap="round" stroke-linejoin="round"/>
<path d="M6 13L4 11" stroke="#303444" stroke-width="1.5" stroke-linecap="round" stroke-linejoin="round"/>
<path fill-rule="evenodd" clip-rule="evenodd" d="M17.5 6.5H19C19.5523 6.5 20 6.94772 20 7.5V10.5C20 11.0523 19.5523 11.5 19 11.5H17.5C16.1193 11.5 15 10.3807 15 9V9C15 7.61929 16.1193 6.5 17.5 6.5V6.5Z" stroke="#303444" stroke-width="1.5" stroke-linecap="round" stroke-linejoin="round"/>
</svg>
